<svg xmlns="http://www.w3.org/2000/svg" viewBox="0 0 784.95 165.5">
  <path fill="#cffb24" d="M0 0V160.7H50.13V98.82H56.63L134.63 160.7H201.71L102.66 80.35V72.67L201.71 0H134.63L56.63 58.04H50.13V0Z"/>
  <path fill="#f4f4ed" d="M206.52 0V160.7H256.89V105.77H319.49L353.78 160.7H411.11L374.17 101.22C393.12 93.54 404.15 76.27 404.15 56.37V49.17C404.15 22.07 383.53 0 346.83 0ZM256.89 37.66H333.16C347.07 37.66 352.59 43.41 352.59 51.57V54.21C352.59 63.08 347.07 67.64 333.16 67.64H256.89Z"/>
  <path fill="#f4f4ed" d="M415.9 0V40.77H458.83V119.92H415.9V160.7H552.13V119.92H509.2V40.77H552.13V0Z"/>
  <path fill="#f4f4ed" d="M667.9 0C608.18 0 560.45 28.3 560.45 79.15V86.35C560.45 137.19 608.18 165.5 667.9 165.5H679.89C738.18 165.5 784.95 137.19 784.95 86.35V79.15C784.95 28.3 738.18 0 679.89 0ZM667.9 43.17H677.5C712.27 43.17 733.38 55.65 733.38 79.15V86.35C733.38 109.61 712.27 122.32 677.5 122.32H667.9C633.12 122.32 612.02 109.61 612.02 86.35V79.15C612.02 55.65 633.12 43.17 667.9 43.17Z"/>
</svg>
